# xmcd
# 
# Track frame offsets:
#     150
#     71977
#     207940
# 
# Disc length: 4570
# 
# Revision: 0
# Processed by: cddbd v1.5.2PL0 Copyright (c) Steve Scherf et al.
# Submitted via: fre:ac v1.0.17
# 
DISCID=2b11d803
DTITLE=Pimsleur - Spanish II - Third Edition
DYEAR=2003
DGENRE=Speech
TTITLE0=Intro
TTITLE1=Lesson 1
TTITLE2=Lesson 2
EXTD=
EXTT0=
EXTT1=
EXTT2=
PLAYORDER=
